<mxfile host="app.diagrams.net" agent="Mozilla/5.0 (Windows NT 10.0; Win64; x64) AppleWebKit/537.36 (KHTML, like Gecko) Chrome/130.0.0.0 Safari/537.36" version="24.7.17">
  <diagram name="Page-1" id="HHkqMWxnP8RVily2cbiW">
    <mxGraphModel dx="1042" dy="567" grid="1" gridSize="10" guides="1" tooltips="1" connect="1" arrows="1" fold="1" page="1" pageScale="1" pageWidth="850" pageHeight="1100" math="0" shadow="0">
      <root>
        <mxCell id="0" />
        <mxCell id="1" parent="0" />
        <mxCell id="TBUsyHT_1IatT4-S45zG-1" value="newspaper agency automation software:&lt;div&gt;0&lt;/div&gt;" style="ellipse;whiteSpace=wrap;html=1;" parent="1" vertex="1">
          <mxGeometry x="350" y="190" width="120" height="80" as="geometry" />
        </mxCell>
        <mxCell id="TBUsyHT_1IatT4-S45zG-2" value="Customer" style="shape=partialRectangle;whiteSpace=wrap;html=1;left=0;right=0;fillColor=none;" parent="1" vertex="1">
          <mxGeometry x="350" y="90" width="120" height="30" as="geometry" />
        </mxCell>
        <mxCell id="TBUsyHT_1IatT4-S45zG-3" value="" style="curved=1;endArrow=classic;html=1;rounded=0;entryX=0;entryY=0;entryDx=0;entryDy=0;exitX=0;exitY=1;exitDx=0;exitDy=0;" parent="1" source="TBUsyHT_1IatT4-S45zG-2" target="TBUsyHT_1IatT4-S45zG-1" edge="1">
          <mxGeometry width="50" height="50" relative="1" as="geometry">
            <mxPoint x="350" y="120" as="sourcePoint" />
            <mxPoint x="350" y="230" as="targetPoint" />
            <Array as="points">
              <mxPoint x="330" y="120" />
              <mxPoint x="280" y="150" />
              <mxPoint x="280" y="160" />
              <mxPoint x="290" y="170" />
              <mxPoint x="310" y="190" />
              <mxPoint x="340" y="190" />
            </Array>
          </mxGeometry>
        </mxCell>
        <mxCell id="TBUsyHT_1IatT4-S45zG-4" value="" style="curved=1;endArrow=classic;html=1;rounded=0;exitX=1;exitY=0.5;exitDx=0;exitDy=0;entryX=1;entryY=1;entryDx=0;entryDy=0;" parent="1" source="TBUsyHT_1IatT4-S45zG-1" target="TBUsyHT_1IatT4-S45zG-2" edge="1">
          <mxGeometry width="50" height="50" relative="1" as="geometry">
            <mxPoint x="480" y="250" as="sourcePoint" />
            <mxPoint x="530" y="200" as="targetPoint" />
            <Array as="points">
              <mxPoint x="540" y="210" />
              <mxPoint x="530" y="150" />
            </Array>
          </mxGeometry>
        </mxCell>
        <mxCell id="TBUsyHT_1IatT4-S45zG-5" value="delivery-person" style="shape=partialRectangle;whiteSpace=wrap;html=1;left=0;right=0;fillColor=none;" parent="1" vertex="1">
          <mxGeometry x="180" y="350" width="120" height="30" as="geometry" />
        </mxCell>
        <mxCell id="TBUsyHT_1IatT4-S45zG-6" value="news-agent" style="shape=partialRectangle;whiteSpace=wrap;html=1;left=0;right=0;fillColor=none;" parent="1" vertex="1">
          <mxGeometry x="530" y="320" width="120" height="30" as="geometry" />
        </mxCell>
        <mxCell id="TBUsyHT_1IatT4-S45zG-7" value="" style="curved=1;endArrow=classic;html=1;rounded=0;exitX=1;exitY=0;exitDx=0;exitDy=0;entryX=0;entryY=1;entryDx=0;entryDy=0;" parent="1" source="TBUsyHT_1IatT4-S45zG-5" target="TBUsyHT_1IatT4-S45zG-1" edge="1">
          <mxGeometry width="50" height="50" relative="1" as="geometry">
            <mxPoint x="250" y="310" as="sourcePoint" />
            <mxPoint x="300" y="260" as="targetPoint" />
            <Array as="points">
              <mxPoint x="330" y="360" />
              <mxPoint x="370" y="350" />
              <mxPoint x="390" y="320" />
            </Array>
          </mxGeometry>
        </mxCell>
        <mxCell id="TBUsyHT_1IatT4-S45zG-8" value="" style="curved=1;endArrow=classic;html=1;rounded=0;exitX=0;exitY=0.5;exitDx=0;exitDy=0;entryX=0.406;entryY=-0.121;entryDx=0;entryDy=0;entryPerimeter=0;" parent="1" source="TBUsyHT_1IatT4-S45zG-1" target="TBUsyHT_1IatT4-S45zG-5" edge="1">
          <mxGeometry width="50" height="50" relative="1" as="geometry">
            <mxPoint x="470" y="330" as="sourcePoint" />
            <mxPoint x="520" y="280" as="targetPoint" />
            <Array as="points">
              <mxPoint x="250" y="240" />
              <mxPoint x="180" y="310" />
            </Array>
          </mxGeometry>
        </mxCell>
        <mxCell id="TBUsyHT_1IatT4-S45zG-9" value="" style="curved=1;endArrow=classic;html=1;rounded=0;exitX=0.5;exitY=1;exitDx=0;exitDy=0;entryX=0;entryY=1;entryDx=0;entryDy=0;" parent="1" source="TBUsyHT_1IatT4-S45zG-1" target="TBUsyHT_1IatT4-S45zG-6" edge="1">
          <mxGeometry width="50" height="50" relative="1" as="geometry">
            <mxPoint x="520" y="280" as="sourcePoint" />
            <mxPoint x="470" y="330" as="targetPoint" />
            <Array as="points">
              <mxPoint x="430" y="310" />
              <mxPoint x="460" y="330" />
              <mxPoint x="520" y="330" />
            </Array>
          </mxGeometry>
        </mxCell>
        <mxCell id="TBUsyHT_1IatT4-S45zG-11" value="" style="curved=1;endArrow=classic;html=1;rounded=0;exitX=0.5;exitY=0;exitDx=0;exitDy=0;entryX=1;entryY=1;entryDx=0;entryDy=0;" parent="1" source="TBUsyHT_1IatT4-S45zG-6" target="TBUsyHT_1IatT4-S45zG-1" edge="1">
          <mxGeometry width="50" height="50" relative="1" as="geometry">
            <mxPoint x="540" y="290" as="sourcePoint" />
            <mxPoint x="590" y="240" as="targetPoint" />
            <Array as="points">
              <mxPoint x="600" y="270" />
              <mxPoint x="540" y="240" />
            </Array>
          </mxGeometry>
        </mxCell>
        <mxCell id="3oEilwgrji_XeGKqUdN3-1" value="customer-details" style="text;html=1;align=center;verticalAlign=middle;whiteSpace=wrap;rounded=0;" parent="1" vertex="1">
          <mxGeometry x="280" y="150" width="100" height="20" as="geometry" />
        </mxCell>
        <mxCell id="3oEilwgrji_XeGKqUdN3-3" value="CN" style="text;html=1;align=center;verticalAlign=middle;whiteSpace=wrap;rounded=0;" parent="1" vertex="1">
          <mxGeometry x="490" y="120" width="50" height="20" as="geometry" />
        </mxCell>
        <mxCell id="3oEilwgrji_XeGKqUdN3-4" value="customer-address" style="text;html=1;align=center;verticalAlign=middle;whiteSpace=wrap;rounded=0;" parent="1" vertex="1">
          <mxGeometry x="200" y="220" width="100" height="20" as="geometry" />
        </mxCell>
        <mxCell id="3oEilwgrji_XeGKqUdN3-5" value="newspaper-details" style="text;html=1;align=center;verticalAlign=middle;whiteSpace=wrap;rounded=0;" parent="1" vertex="1">
          <mxGeometry x="280" y="300" width="100" height="20" as="geometry" />
        </mxCell>
        <mxCell id="3oEilwgrji_XeGKqUdN3-6" value="subscription-details" style="text;html=1;align=center;verticalAlign=middle;whiteSpace=wrap;rounded=0;" parent="1" vertex="1">
          <mxGeometry x="535" y="230" width="100" height="20" as="geometry" />
        </mxCell>
        <mxCell id="3oEilwgrji_XeGKqUdN3-7" value="newspaper-sales-info" style="text;html=1;align=center;verticalAlign=middle;whiteSpace=wrap;rounded=0;" parent="1" vertex="1">
          <mxGeometry x="440" y="300" width="120" height="20" as="geometry" />
        </mxCell>
        <mxCell id="3oEilwgrji_XeGKqUdN3-9" value="&lt;font style=&quot;font-size: 18px;&quot;&gt;Context Diagram&lt;/font&gt;" style="text;html=1;align=center;verticalAlign=middle;whiteSpace=wrap;rounded=0;" parent="1" vertex="1">
          <mxGeometry x="550" y="180" width="160" height="20" as="geometry" />
        </mxCell>
        <mxCell id="3oEilwgrji_XeGKqUdN3-15" value="" style="edgeStyle=orthogonalEdgeStyle;rounded=0;orthogonalLoop=1;jettySize=auto;html=1;entryX=0;entryY=0.5;entryDx=0;entryDy=0;" parent="1" source="3oEilwgrji_XeGKqUdN3-10" target="3oEilwgrji_XeGKqUdN3-11" edge="1">
          <mxGeometry relative="1" as="geometry">
            <mxPoint x="370" y="576" as="targetPoint" />
          </mxGeometry>
        </mxCell>
        <mxCell id="3oEilwgrji_XeGKqUdN3-10" value="register-customer&lt;div&gt;0.1&lt;/div&gt;" style="ellipse;whiteSpace=wrap;html=1;" parent="1" vertex="1">
          <mxGeometry x="150" y="536" width="120" height="80" as="geometry" />
        </mxCell>
        <mxCell id="3oEilwgrji_XeGKqUdN3-19" value="" style="edgeStyle=orthogonalEdgeStyle;rounded=0;orthogonalLoop=1;jettySize=auto;html=1;" parent="1" source="3oEilwgrji_XeGKqUdN3-11" target="3oEilwgrji_XeGKqUdN3-17" edge="1">
          <mxGeometry relative="1" as="geometry" />
        </mxCell>
        <mxCell id="3oEilwgrji_XeGKqUdN3-11" value="select-newspaper&lt;br&gt;&lt;div&gt;0.2&lt;/div&gt;" style="ellipse;whiteSpace=wrap;html=1;" parent="1" vertex="1">
          <mxGeometry x="370" y="536" width="120" height="80" as="geometry" />
        </mxCell>
        <mxCell id="3oEilwgrji_XeGKqUdN3-12" value="" style="curved=1;endArrow=classic;html=1;rounded=0;entryX=0;entryY=0;entryDx=0;entryDy=0;exitX=0;exitY=1;exitDx=0;exitDy=0;" parent="1" target="3oEilwgrji_XeGKqUdN3-10" edge="1">
          <mxGeometry width="50" height="50" relative="1" as="geometry">
            <mxPoint x="130" y="484" as="sourcePoint" />
            <mxPoint x="148" y="566" as="targetPoint" />
            <Array as="points">
              <mxPoint x="110" y="484" />
              <mxPoint x="60" y="514" />
              <mxPoint x="60" y="524" />
              <mxPoint x="70" y="534" />
              <mxPoint x="90" y="554" />
              <mxPoint x="120" y="554" />
            </Array>
          </mxGeometry>
        </mxCell>
        <mxCell id="3oEilwgrji_XeGKqUdN3-13" value="customer-detail" style="text;html=1;align=center;verticalAlign=middle;whiteSpace=wrap;rounded=0;" parent="1" vertex="1">
          <mxGeometry x="60" y="514" width="100" height="20" as="geometry" />
        </mxCell>
        <mxCell id="3oEilwgrji_XeGKqUdN3-16" value="valid-customer" style="text;html=1;align=center;verticalAlign=middle;whiteSpace=wrap;rounded=0;" parent="1" vertex="1">
          <mxGeometry x="260" y="556" width="100" height="20" as="geometry" />
        </mxCell>
        <mxCell id="3oEilwgrji_XeGKqUdN3-17" value="subcription-details&lt;div&gt;0.3&lt;/div&gt;" style="ellipse;whiteSpace=wrap;html=1;" parent="1" vertex="1">
          <mxGeometry x="590" y="536" width="120" height="80" as="geometry" />
        </mxCell>
        <mxCell id="3oEilwgrji_XeGKqUdN3-18" value="&lt;font style=&quot;font-size: 18px;&quot;&gt;Level1 DFD&lt;/font&gt;" style="text;html=1;align=center;verticalAlign=middle;whiteSpace=wrap;rounded=0;" parent="1" vertex="1">
          <mxGeometry x="680" y="490" width="130" height="22" as="geometry" />
        </mxCell>
        <mxCell id="3oEilwgrji_XeGKqUdN3-20" value="pay-amount" style="text;html=1;align=center;verticalAlign=middle;whiteSpace=wrap;rounded=0;" parent="1" vertex="1">
          <mxGeometry x="480" y="556" width="100" height="20" as="geometry" />
        </mxCell>
        <mxCell id="3oEilwgrji_XeGKqUdN3-27" value="newspaper-detail" style="text;html=1;align=center;verticalAlign=middle;whiteSpace=wrap;rounded=0;" parent="1" vertex="1">
          <mxGeometry x="640" y="650" width="100" height="20" as="geometry" />
        </mxCell>
        <mxCell id="3oEilwgrji_XeGKqUdN3-29" value="generate-customer-address&lt;div&gt;0.4&lt;/div&gt;" style="ellipse;whiteSpace=wrap;html=1;" parent="1" vertex="1">
          <mxGeometry x="580" y="712" width="120" height="80" as="geometry" />
        </mxCell>
        <mxCell id="3oEilwgrji_XeGKqUdN3-30" value="delivery" style="text;html=1;align=center;verticalAlign=middle;whiteSpace=wrap;rounded=0;" parent="1" vertex="1">
          <mxGeometry x="510" y="730" width="70" height="20" as="geometry" />
        </mxCell>
        <mxCell id="3oEilwgrji_XeGKqUdN3-32" value="" style="curved=1;endArrow=classic;html=1;rounded=0;exitX=0.5;exitY=1;exitDx=0;exitDy=0;entryX=0.5;entryY=0;entryDx=0;entryDy=0;" parent="1" source="3oEilwgrji_XeGKqUdN3-17" target="3oEilwgrji_XeGKqUdN3-29" edge="1">
          <mxGeometry width="50" height="50" relative="1" as="geometry">
            <mxPoint x="670" y="650" as="sourcePoint" />
            <mxPoint x="620" y="700" as="targetPoint" />
            <Array as="points">
              <mxPoint x="620" y="650" />
              <mxPoint x="670" y="700" />
            </Array>
          </mxGeometry>
        </mxCell>
        <mxCell id="3oEilwgrji_XeGKqUdN3-33" value="" style="curved=1;endArrow=classic;html=1;rounded=0;exitX=0;exitY=0.5;exitDx=0;exitDy=0;" parent="1" source="3oEilwgrji_XeGKqUdN3-29" edge="1">
          <mxGeometry width="50" height="50" relative="1" as="geometry">
            <mxPoint x="555" y="760" as="sourcePoint" />
            <mxPoint x="480" y="752" as="targetPoint" />
            <Array as="points">
              <mxPoint x="540" y="770" />
              <mxPoint x="530" y="750" />
            </Array>
          </mxGeometry>
        </mxCell>
        <mxCell id="3oEilwgrji_XeGKqUdN3-35" value="&lt;font style=&quot;font-size: 18px;&quot;&gt;Level2 DFD&lt;/font&gt;" style="text;html=1;align=center;verticalAlign=middle;whiteSpace=wrap;rounded=0;" parent="1" vertex="1">
          <mxGeometry x="690" y="1100" width="130" height="22" as="geometry" />
        </mxCell>
        <mxCell id="3oEilwgrji_XeGKqUdN3-36" value="" style="curved=1;endArrow=classic;html=1;rounded=0;exitX=0.5;exitY=1;exitDx=0;exitDy=0;entryX=1;entryY=0.5;entryDx=0;entryDy=0;" parent="1" target="3oEilwgrji_XeGKqUdN3-37" edge="1">
          <mxGeometry width="50" height="50" relative="1" as="geometry">
            <mxPoint x="707.5" y="950" as="sourcePoint" />
            <mxPoint x="647.5" y="1080" as="targetPoint" />
            <Array as="points">
              <mxPoint x="677.5" y="984" />
              <mxPoint x="697.5" y="1020" />
            </Array>
          </mxGeometry>
        </mxCell>
        <mxCell id="3oEilwgrji_XeGKqUdN3-37" value="get-publication&lt;div&gt;0.4.1&lt;/div&gt;" style="ellipse;whiteSpace=wrap;html=1;" parent="1" vertex="1">
          <mxGeometry x="510" y="1000" width="120" height="80" as="geometry" />
        </mxCell>
        <mxCell id="3oEilwgrji_XeGKqUdN3-38" value="newspaper-detail" style="text;html=1;align=center;verticalAlign=middle;resizable=0;points=[];autosize=1;strokeColor=none;fillColor=none;" parent="1" vertex="1">
          <mxGeometry x="682.5" y="970" width="110" height="30" as="geometry" />
        </mxCell>
        <mxCell id="3oEilwgrji_XeGKqUdN3-40" value="find-sales-info&lt;div&gt;0.4.2&lt;/div&gt;" style="ellipse;whiteSpace=wrap;html=1;" parent="1" vertex="1">
          <mxGeometry x="470" y="1240" width="120" height="80" as="geometry" />
        </mxCell>
        <mxCell id="3oEilwgrji_XeGKqUdN3-41" value="" style="curved=1;endArrow=classic;html=1;rounded=0;exitX=0.5;exitY=1;exitDx=0;exitDy=0;entryX=0.5;entryY=0;entryDx=0;entryDy=0;" parent="1" source="3oEilwgrji_XeGKqUdN3-37" target="3oEilwgrji_XeGKqUdN3-44" edge="1">
          <mxGeometry width="50" height="50" relative="1" as="geometry">
            <mxPoint x="590" y="1120" as="sourcePoint" />
            <mxPoint x="540" y="1170" as="targetPoint" />
            <Array as="points">
              <mxPoint x="540" y="1120" />
              <mxPoint x="490" y="1060" />
            </Array>
          </mxGeometry>
        </mxCell>
        <mxCell id="3oEilwgrji_XeGKqUdN3-42" value="newspaper-data" style="text;html=1;align=center;verticalAlign=middle;whiteSpace=wrap;rounded=0;" parent="1" vertex="1">
          <mxGeometry x="390" y="1000" width="120" height="20" as="geometry" />
        </mxCell>
        <mxCell id="3oEilwgrji_XeGKqUdN3-44" value="manage-newspaper-sales" style="shape=partialRectangle;whiteSpace=wrap;html=1;left=0;right=0;fillColor=none;" parent="1" vertex="1">
          <mxGeometry x="337.5" y="1120" width="145" height="40" as="geometry" />
        </mxCell>
        <mxCell id="3oEilwgrji_XeGKqUdN3-45" value="" style="curved=1;endArrow=classic;html=1;rounded=0;entryX=0.5;entryY=1;entryDx=0;entryDy=0;" parent="1" source="3oEilwgrji_XeGKqUdN3-40" target="3oEilwgrji_XeGKqUdN3-44" edge="1">
          <mxGeometry width="50" height="50" relative="1" as="geometry">
            <mxPoint x="340" y="1290" as="sourcePoint" />
            <mxPoint x="390" y="1240" as="targetPoint" />
            <Array as="points">
              <mxPoint x="420" y="1240" />
              <mxPoint x="410" y="1190" />
            </Array>
          </mxGeometry>
        </mxCell>
        <mxCell id="3oEilwgrji_XeGKqUdN3-47" value="get-paid-customer&lt;div&gt;0.4.3&lt;/div&gt;" style="ellipse;whiteSpace=wrap;html=1;" parent="1" vertex="1">
          <mxGeometry x="130" y="1060" width="120" height="80" as="geometry" />
        </mxCell>
        <mxCell id="3oEilwgrji_XeGKqUdN3-48" value="get-unpaid-customer&lt;div&gt;0.4.4&lt;/div&gt;" style="ellipse;whiteSpace=wrap;html=1;" parent="1" vertex="1">
          <mxGeometry x="220" y="1250" width="120" height="80" as="geometry" />
        </mxCell>
        <mxCell id="3oEilwgrji_XeGKqUdN3-50" value="" style="curved=1;endArrow=classic;html=1;rounded=0;entryX=1;entryY=0.5;entryDx=0;entryDy=0;" parent="1" target="3oEilwgrji_XeGKqUdN3-40" edge="1">
          <mxGeometry width="50" height="50" relative="1" as="geometry">
            <mxPoint x="740" y="1240" as="sourcePoint" />
            <mxPoint x="540" y="1240" as="targetPoint" />
            <Array as="points">
              <mxPoint x="630" y="1220" />
            </Array>
          </mxGeometry>
        </mxCell>
        <mxCell id="3oEilwgrji_XeGKqUdN3-51" value="&lt;span style=&quot;text-wrap-mode: wrap;&quot;&gt;subscription-details&lt;/span&gt;" style="text;html=1;align=center;verticalAlign=middle;resizable=0;points=[];autosize=1;strokeColor=none;fillColor=none;" parent="1" vertex="1">
          <mxGeometry x="610" y="1250" width="120" height="30" as="geometry" />
        </mxCell>
        <mxCell id="3oEilwgrji_XeGKqUdN3-52" value="" style="curved=1;endArrow=classic;html=1;rounded=0;exitX=0.25;exitY=0;exitDx=0;exitDy=0;entryX=1;entryY=0;entryDx=0;entryDy=0;" parent="1" source="3oEilwgrji_XeGKqUdN3-44" target="3oEilwgrji_XeGKqUdN3-47" edge="1">
          <mxGeometry width="50" height="50" relative="1" as="geometry">
            <mxPoint x="240" y="1035" as="sourcePoint" />
            <mxPoint x="290" y="985" as="targetPoint" />
            <Array as="points">
              <mxPoint x="290" y="1035" />
            </Array>
          </mxGeometry>
        </mxCell>
        <mxCell id="3oEilwgrji_XeGKqUdN3-53" value="" style="curved=1;endArrow=classic;html=1;rounded=0;entryX=0.5;entryY=0;entryDx=0;entryDy=0;exitX=0;exitY=1;exitDx=0;exitDy=0;" parent="1" source="3oEilwgrji_XeGKqUdN3-44" target="3oEilwgrji_XeGKqUdN3-48" edge="1">
          <mxGeometry width="50" height="50" relative="1" as="geometry">
            <mxPoint x="330" y="1200" as="sourcePoint" />
            <mxPoint x="280" y="1250" as="targetPoint" />
            <Array as="points">
              <mxPoint x="280" y="1200" />
              <mxPoint x="330" y="1250" />
            </Array>
          </mxGeometry>
        </mxCell>
        <mxCell id="3oEilwgrji_XeGKqUdN3-55" value="delivery" style="text;html=1;align=center;verticalAlign=middle;whiteSpace=wrap;rounded=0;" parent="1" vertex="1">
          <mxGeometry x="60" y="1091" width="70" height="20" as="geometry" />
        </mxCell>
        <mxCell id="3oEilwgrji_XeGKqUdN3-56" value="" style="curved=1;endArrow=classic;html=1;rounded=0;exitX=1;exitY=0.25;exitDx=0;exitDy=0;" parent="1" edge="1" source="3oEilwgrji_XeGKqUdN3-55">
          <mxGeometry width="50" height="50" relative="1" as="geometry">
            <mxPoint x="130" y="1113" as="sourcePoint" />
            <mxPoint x="30" y="1113" as="targetPoint" />
            <Array as="points">
              <mxPoint x="90" y="1131" />
              <mxPoint x="80" y="1111" />
            </Array>
          </mxGeometry>
        </mxCell>
      </root>
    </mxGraphModel>
  </diagram>
</mxfile>
